<?xml version="1.0" encoding="UTF-8" standalone="no"?>
<svg
   xmlns:dc="http://purl.org/dc/elements/1.1/"
   xmlns:cc="http://creativecommons.org/ns#"
   xmlns:rdf="http://www.w3.org/1999/02/22-rdf-syntax-ns#"
   xmlns:svg="http://www.w3.org/2000/svg"
   xmlns="http://www.w3.org/2000/svg"
   xmlns:sodipodi="http://sodipodi.sourceforge.net/DTD/sodipodi-0.dtd"
   xmlns:inkscape="http://www.inkscape.org/namespaces/inkscape"
   width="210"
   height="60"
   version="1.1"
   id="svg39"
   sodipodi:docname="safecoin-logo-side.svg"
   inkscape:version="0.92.2 (5c3e80d, 2017-08-06)">
  <metadata
     id="metadata45">
    <rdf:RDF>
      <cc:Work
         rdf:about="">
        <dc:format>image/svg+xml</dc:format>
        <dc:type
           rdf:resource="http://purl.org/dc/dcmitype/StillImage" />
        <dc:title></dc:title>
      </cc:Work>
    </rdf:RDF>
  </metadata>
  <defs
     id="defs43" />
  <sodipodi:namedview
     pagecolor="#ffffff"
     bordercolor="#666666"
     borderopacity="1"
     objecttolerance="10"
     gridtolerance="10"
     guidetolerance="10"
     inkscape:pageopacity="0"
     inkscape:pageshadow="2"
     inkscape:window-width="1920"
     inkscape:window-height="1001"
     id="namedview41"
     showgrid="false"
     inkscape:measure-start="-11.0833,61.25"
     inkscape:measure-end="-11.6667,-1.16667"
     inkscape:zoom="1.7142857"
     inkscape:cx="105"
     inkscape:cy="30"
     inkscape:window-x="-9"
     inkscape:window-y="-9"
     inkscape:window-maximized="1"
     inkscape:current-layer="svg39" />
  <g
     id="g5">
    <title
       id="title2">background</title>
    <path
       style="fill:none"
       d="M -1,-1 H 211 V 61 H -1 Z"
       id="canvas_background" />
  </g>
  <g
     aria-label="SafeWallet"
     style="font-style:normal;font-variant:normal;font-weight:normal;font-stretch:normal;font-size:37.50938034px;line-height:1.25;font-family:'Eras Demi ITC';-inkscape-font-specification:'Eras Demi ITC';letter-spacing:0px;word-spacing:0px;fill:#00496e;fill-opacity:1;stroke:none;stroke-width:0.93773454"
     id="text854">
    <path
       d="m 4.5122219,42.581383 q -0.146521,-2.783899 -0.3846176,-4.542151 3.5897649,1.630046 6.5201857,1.630046 1.172168,0 2.1795,-0.347987 1.025647,-0.366303 1.50184,-1.007332 0.494509,-0.659345 0.494509,-1.46521 0,-0.622715 -0.219782,-1.117223 -0.329672,-0.67766 -1.098908,-1.410265 Q 12.442672,33.313929 9.713718,31.006223 8.413344,29.889 7.9188356,29.412807 6.819928,28.368845 6.2338439,27.544664 5.6477598,26.702168 5.391348,25.877988 5.1349363,25.053807 5.1349363,24.119735 q 0,-1.721622 0.9523866,-3.223462 0.9707017,-1.520156 2.8754749,-2.362651 1.9230882,-0.860811 4.8351932,-0.860811 2.619064,0 5.897471,0.641029 0.09158,1.904773 0.366303,4.359 -2.85716,-1.098907 -5.274757,-1.098907 -1.794882,0 -2.948735,0.82418 -1.135538,0.805866 -1.135538,1.886458 0,0.293042 0.07326,0.622715 0.07326,0.311357 0.219782,0.622714 0.146521,0.293042 0.512823,0.787551 0.384618,0.476193 1.098908,1.135537 0.732605,0.64103 1.245429,1.043963 l 2.545802,2.051294 q 0.860811,0.71429 1.538471,1.39195 0.67766,0.677659 1.153853,1.300374 0.494509,0.622714 0.769235,1.190483 0.274727,0.567769 0.402933,1.172168 0.146521,0.586084 0.146521,1.245429 0,1.53847 -0.71429,2.912105 -0.71429,1.355319 -2.051294,2.234445 -1.337004,0.879126 -2.93042,1.208799 -1.593416,0.347987 -3.369984,0.347987 -1.172168,0 -2.7289536,-0.201466 -1.5567858,-0.201467 -4.1025885,-0.769236 z"
       style="fill:#00496e;fill-opacity:1;stroke-width:0.93773454"
       id="path861" />
    <path
       d="m 25.501357,28.570311 q 0.256412,-1.318689 0.311357,-1.849828 0.07326,-0.531138 0.238097,-1.611731 2.490857,-0.586084 4.39563,-0.824181 1.904774,-0.238096 3.681341,-0.238096 2.014664,0 3.699656,0.476193 1.684991,0.457878 2.637378,1.483525 0.952387,1.025648 0.952387,2.948736 0,1.043962 -0.293042,5.329702 -0.293042,4.267424 -0.347988,8.827891 -1.391949,-0.03663 -2.564118,-0.03663 -1.117222,0 -2.619063,0.03663 0.238097,-2.21613 0.384618,-5.128235 l 0.238097,-4.560467 q -0.695975,0.457878 -1.062278,0.641029 -0.366302,0.183152 -0.824181,0.347988 -0.457878,0.146521 -1.611731,0.476193 -1.153853,0.311357 -1.849828,0.549454 -0.695974,0.238097 -1.263743,0.549454 -0.549454,0.293042 -0.934072,0.677659 -0.384618,0.366303 -0.567769,0.787551 -0.164836,0.402933 -0.164836,0.879126 0,0.769235 0.439563,1.337004 0.457878,0.549454 1.135538,0.769236 0.67766,0.219781 1.593416,0.219781 0.586084,0 1.227114,-0.09158 0.659344,-0.09157 1.758252,-0.457878 -0.384618,1.043963 -0.897441,3.113572 -1.300374,0.219781 -2.06961,0.274727 -0.769235,0.05494 -1.42858,0.05494 -2.307706,0 -3.791231,-0.622714 -1.483525,-0.622714 -2.197815,-1.978034 -0.695975,-1.355319 -0.695975,-2.728954 0,-0.78755 0.274727,-1.556786 0.274727,-0.769235 0.805865,-1.410264 0.531139,-0.64103 1.373635,-1.227114 0.842496,-0.604399 2.435912,-1.153853 1.593416,-0.567769 4.212479,-1.135538 0.695975,-0.146521 1.446895,-0.347987 0.75092,-0.219782 1.190483,-0.421248 0.457879,-0.201467 0.787551,-0.512824 0.329672,-0.329672 0.476193,-0.677659 0.164836,-0.347988 0.164836,-0.71429 0,-0.71429 -0.476193,-1.208799 -0.457878,-0.494508 -1.208798,-0.677659 -0.732606,-0.201467 -1.630047,-0.201467 -3.333353,0 -7.362681,1.593416 z"
       style="fill:#00496e;fill-opacity:1;stroke-width:0.93773454"
       id="path863" />
    <path
       d="m 46.0143,43.112522 0.219782,-3.021996 0.549454,-11.904832 H 44.51246 q 0.05495,-0.549454 0.109891,-1.776568 0.07326,-1.245428 0.09157,-1.813197 h 2.490858 v -0.732605 q 0,-1.959719 0.164836,-2.985366 0.164836,-1.043962 0.604399,-1.703307 0.457878,-0.659345 1.263744,-1.135538 0.82418,-0.494508 1.794882,-0.659344 0.970702,-0.183152 1.996349,-0.183152 2.087925,0 4.413946,0.586084 0.05494,2.051295 0.201466,3.516505 -1.758252,-0.622715 -3.205147,-0.622715 -0.567769,0 -1.043962,0.146521 -0.476194,0.128206 -0.787551,0.366303 -0.293042,0.238097 -0.494508,0.622714 -0.201467,0.384618 -0.274727,0.915757 -0.07326,0.512823 -0.07326,1.190483 v 0.67766 h 4.670358 q -0.109891,1.263743 -0.219782,3.589765 h -4.39563 q -0.347988,7.28942 -0.531139,14.926828 -1.666677,-0.03663 -2.655693,-0.03663 -1.007332,0 -2.619064,0.03663 z"
       style="fill:#00496e;fill-opacity:1;stroke-width:0.93773454"
       id="path865" />
    <path
       d="m 74.860624,38.954988 q -0.238096,1.080593 -0.677659,3.882807 -1.978034,0.421248 -3.333353,0.567769 -1.35532,0.146521 -2.728954,0.146521 -2.399282,0 -4.304055,-0.476193 -1.886458,-0.476193 -3.315038,-1.739937 -1.42858,-1.282059 -2.10624,-3.131887 -0.67766,-1.849828 -0.67766,-3.882807 0,-2.252761 0.787551,-4.359 0.78755,-2.124555 2.197815,-3.461559 1.42858,-1.35532 3.241778,-1.904773 1.813197,-0.567769 3.791231,-0.567769 1.868143,0 3.553135,0.476193 1.684991,0.457878 2.820529,1.520156 1.153853,1.062277 1.758252,2.564117 0.622715,1.483526 0.622715,3.315038 0,0.860811 -0.183151,1.776568 l -13.424989,0.01832 q -0.03663,0.677659 -0.03663,1.080592 0,1.227114 0.421248,2.252761 0.421248,1.025647 1.227114,1.739937 0.805865,0.71429 1.923088,1.062277 1.117223,0.329673 2.197815,0.329673 1.263744,0 2.728954,-0.274727 1.483525,-0.274727 3.516504,-0.934072 z m -11.831572,-7.399311 8.57148,0.01832 q 0,-0.879126 -0.05495,-1.300374 -0.05495,-0.421248 -0.256411,-0.952387 -0.183152,-0.549453 -0.512824,-0.952386 -0.329672,-0.421248 -0.769235,-0.695975 -0.439563,-0.274727 -1.025647,-0.421248 -0.567769,-0.146521 -1.227114,-0.146521 -0.769235,0 -1.50184,0.238097 -0.71429,0.238096 -1.318689,0.695975 -0.6044,0.457878 -0.989017,1.025647 -0.366303,0.567769 -0.549454,1.098907 -0.183151,0.512824 -0.366303,1.39195 z"
       style="fill:#00496e;fill-opacity:1;stroke-width:0.93773454"
       id="path867" />
    <path
       d="m 86.87535,43.112522 q -4.487206,-12.600807 -9.3224,-25.000148 1.758253,0.03663 2.85716,0.03663 1.208799,0 2.85716,-0.03663 l 5.128236,15.164925 2.14287,5.970731 q 0.695974,-1.355319 2.087924,-4.340685 1.410265,-3.003681 2.014664,-4.432261 -0.842496,-2.564117 -2.14287,-6.208828 -1.282059,-3.64471 -2.25276,-6.153882 1.556785,0.03663 2.728954,0.03663 1.300374,0 2.728953,-0.03663 0.860811,3.315038 1.904774,6.556815 1.53847,-3.315038 2.820525,-6.556815 1.59342,0.03663 2.56412,0.03663 1.11722,0 2.56412,-0.03663 -1.17217,2.344336 -2.91211,5.989046 -1.72162,3.64471 -2.783895,6.080622 0.402935,1.31869 1.501845,4.468891 1.0989,3.150202 1.61173,4.450576 l 4.92677,-10.476252 3.57145,-7.838875 1.17216,-2.674008 q 1.75826,0.03663 2.82053,0.03663 1.17217,0 2.83885,-0.03663 l -3.44325,6.831542 -7.19784,14.761992 -1.61173,3.406614 q -1.95972,-0.03663 -3.35167,-0.03663 -1.46521,0 -3.369983,0.03663 -1.080593,-3.699656 -2.380967,-7.271105 -1.739937,3.571449 -3.296723,7.271105 -1.959718,-0.03663 -3.388298,-0.03663 -1.501841,0 -3.388299,0.03663 z"
       style="fill:#00496e;fill-opacity:1;stroke-width:0.93773454"
       id="path869" />
    <path
       d="m 120.15393,28.570311 q 0.25642,-1.318689 0.31136,-1.849828 0.0733,-0.531138 0.2381,-1.611731 2.49085,-0.586084 4.39563,-0.824181 1.90477,-0.238096 3.68134,-0.238096 2.01466,0 3.69965,0.476193 1.685,0.457878 2.63738,1.483525 0.95239,1.025648 0.95239,2.948736 0,1.043962 -0.29304,5.329702 -0.29304,4.267424 -0.34799,8.827891 -1.39195,-0.03663 -2.56412,-0.03663 -1.11722,0 -2.61906,0.03663 0.2381,-2.21613 0.38462,-5.128235 l 0.23809,-4.560467 q -0.69597,0.457878 -1.06227,0.641029 -0.36631,0.183152 -0.82419,0.347988 -0.45787,0.146521 -1.61173,0.476193 -1.15385,0.311357 -1.84982,0.549454 -0.69598,0.238097 -1.26375,0.549454 -0.54945,0.293042 -0.93407,0.677659 -0.38462,0.366303 -0.56777,0.787551 -0.16483,0.402933 -0.16483,0.879126 0,0.769235 0.43956,1.337004 0.45788,0.549454 1.13554,0.769236 0.67766,0.219781 1.59341,0.219781 0.58609,0 1.22712,-0.09158 0.65934,-0.09157 1.75825,-0.457878 -0.38462,1.043963 -0.89744,3.113572 -1.30038,0.219781 -2.06961,0.274727 -0.76924,0.05494 -1.42858,0.05494 -2.30771,0 -3.79123,-0.622714 -1.48353,-0.622714 -2.19782,-1.978034 -0.69597,-1.355319 -0.69597,-2.728954 0,-0.78755 0.27472,-1.556786 0.27473,-0.769235 0.80587,-1.410264 0.53114,-0.64103 1.37363,-1.227114 0.8425,-0.604399 2.43592,-1.153853 1.59341,-0.567769 4.21247,-1.135538 0.69598,-0.146521 1.4469,-0.347987 0.75092,-0.219782 1.19048,-0.421248 0.45788,-0.201467 0.78755,-0.512824 0.32968,-0.329672 0.4762,-0.677659 0.16483,-0.347988 0.16483,-0.71429 0,-0.71429 -0.47619,-1.208799 -0.45788,-0.494508 -1.2088,-0.677659 -0.7326,-0.201467 -1.63005,-0.201467 -3.33335,0 -7.36268,1.593416 z"
       style="fill:#00496e;fill-opacity:1;stroke-width:0.93773454"
       id="path871" />
    <path
       d="m 140.00753,43.112522 q 0.27473,-3.095256 0.65934,-11.117282 0.40294,-8.040341 0.49451,-13.882866 1.90477,0.03663 2.71064,0.03663 1.08059,0 2.63738,-0.03663 l -0.43956,6.685021 -0.64103,14.908513 -0.0733,3.406614 q -1.50184,-0.03663 -2.54581,-0.03663 -0.34798,0 -2.80221,0.03663 z"
       style="fill:#00496e;fill-opacity:1;stroke-width:0.93773454"
       id="path873" />
    <path
       d="m 149.97097,43.112522 q 0.27473,-3.095256 0.65934,-11.117282 0.40294,-8.040341 0.49451,-13.882866 1.90477,0.03663 2.71064,0.03663 1.08059,0 2.63738,-0.03663 l -0.43956,6.685021 -0.64103,14.908513 -0.0733,3.406614 q -1.50184,-0.03663 -2.54581,-0.03663 -0.34798,0 -2.80221,0.03663 z"
       style="fill:#00496e;fill-opacity:1;stroke-width:0.93773454"
       id="path875" />
    <path
       d="m 176.54621,38.954988 q -0.23809,1.080593 -0.67766,3.882807 -1.97803,0.421248 -3.33335,0.567769 -1.35532,0.146521 -2.72895,0.146521 -2.39929,0 -4.30406,-0.476193 -1.88646,-0.476193 -3.31504,-1.739937 -1.42858,-1.282059 -2.10624,-3.131887 -0.67766,-1.849828 -0.67766,-3.882807 0,-2.252761 0.78755,-4.359 0.78756,-2.124555 2.19782,-3.461559 1.42858,-1.35532 3.24178,-1.904773 1.8132,-0.567769 3.79123,-0.567769 1.86814,0 3.55313,0.476193 1.685,0.457878 2.82053,1.520156 1.15386,1.062277 1.75826,2.564117 0.62271,1.483526 0.62271,3.315038 0,0.860811 -0.18315,1.776568 l -13.42499,0.01832 q -0.0366,0.677659 -0.0366,1.080592 0,1.227114 0.42125,2.252761 0.42125,1.025647 1.22711,1.739937 0.80587,0.71429 1.92309,1.062277 1.11722,0.329673 2.19781,0.329673 1.26375,0 2.72896,-0.274727 1.48352,-0.274727 3.5165,-0.934072 z m -11.83157,-7.399311 8.57148,0.01832 q 0,-0.879126 -0.0549,-1.300374 -0.0549,-0.421248 -0.25642,-0.952387 -0.18315,-0.549453 -0.51282,-0.952386 -0.32967,-0.421248 -0.76924,-0.695975 -0.43956,-0.274727 -1.02564,-0.421248 -0.56777,-0.146521 -1.22712,-0.146521 -0.76923,0 -1.50184,0.238097 -0.71429,0.238096 -1.31869,0.695975 -0.60439,0.457878 -0.98901,1.025647 -0.36631,0.567769 -0.54946,1.098907 -0.18315,0.512824 -0.3663,1.39195 z"
       style="fill:#00496e;fill-opacity:1;stroke-width:0.93773454"
       id="path877" />
    <path
       d="m 192.37049,39.284661 q -0.21978,1.007332 -0.69598,3.736285 -1.53847,0.347988 -2.41759,0.439564 -0.87913,0.09157 -1.64836,0.09157 -1.35532,0 -2.43592,-0.256412 -1.06227,-0.256411 -1.75825,-0.897441 -0.69597,-0.659344 -0.95238,-1.520155 -0.2381,-0.879126 -0.2381,-1.813198 0,-0.238097 0.0183,-0.641029 0.0183,-0.402933 0.14653,-2.600748 l 0.42124,-7.619093 h -2.63738 q 0.0916,-1.098908 0.16484,-3.53482 h 2.76558 q 0.1099,-1.062277 0.21979,-3.60808 l 2.16118,-0.421248 q 0.67766,-0.128206 2.61906,-0.604399 -0.1282,2.472542 -0.14652,4.633727 h 4.65205 q -0.12821,2.472542 -0.12821,3.53482 h -4.67036 q -0.38462,7.454256 -0.38462,8.626425 0,1.135537 0.2381,1.758252 0.25641,0.622714 0.80587,0.897441 0.54945,0.274727 1.17217,0.274727 0.45787,0 0.95238,-0.07326 0.51283,-0.07326 1.77657,-0.402932 z"
       style="fill:#00496e;fill-opacity:1;stroke-width:0.93773454"
       id="path879" />
  </g>
  <g
     aria-label="TM"
     style="font-style:normal;font-variant:normal;font-weight:normal;font-stretch:normal;font-size:8.13276196px;line-height:1.25;font-family:'Eras Demi ITC';-inkscape-font-specification:'Eras Demi ITC';letter-spacing:0px;word-spacing:0px;fill:#00496e;fill-opacity:1;stroke:none;stroke-width:0.20331906"
     id="text858">
    <path
       d="m 197.06434,20.916666 0.0874,-1.159554 0.0874,-1.727418 0.0556,-1.69962 h -0.27797 l -0.25812,0.004 -0.24621,0.004 -0.91732,0.0278 q 0.0318,-0.571835 0.0357,-0.869666 1.14367,0.0079 2.39456,0.0079 l 1.42562,-0.004 0.76244,-0.004 q -0.0397,0.559922 -0.0397,0.861724 -0.71876,-0.03574 -1.37796,-0.03574 h -0.30577 l -0.0477,0.726707 -0.11516,2.795637 -0.008,0.468587 q -0.004,0.289888 -0.004,0.603603 l -0.6036,-0.0079 q -0.0993,0 -0.64729,0.0079 z"
       style="stroke-width:0.20331906"
       id="path882" />
    <path
       d="m 200.49535,20.916666 0.10325,-0.897463 0.26209,-3.153034 0.0913,-1.370021 q 0.56787,0.0079 0.82996,0.0079 0.21046,0 0.76641,-0.0079 0.0635,0.321658 0.0953,0.456674 0.0318,0.135017 0.1231,0.432847 0.0913,0.297831 0.2343,0.722736 0.21046,0.643314 0.37725,1.270744 l 0.3018,1.135727 0.53213,-1.457384 0.77436,-1.894203 q 0.0397,-0.09531 0.0794,-0.218409 0.0437,-0.127074 0.14296,-0.448732 0.47255,0.0079 0.84186,0.0079 0.24621,0 0.78628,-0.0079 -0.0556,1.14367 -0.0834,2.529575 -0.0278,1.381934 -0.0278,2.064959 0,0.3296 0.008,0.825984 -0.39314,-0.0079 -0.5361,-0.0079 -0.20649,0 -0.54801,0.0079 0.0238,-0.40505 0.0318,-0.667141 l 0.0675,-2.362789 q 0.0119,-0.500356 0.0119,-0.984827 l -0.004,-0.321657 -1.46532,3.863856 -0.17076,0.472558 q -0.38519,-0.0079 -0.52815,-0.0079 -0.1787,0 -0.55992,0.0079 l -0.68303,-2.446182 q -0.0357,-0.131046 -0.16678,-0.548009 l -0.24621,-0.810099 q -0.0357,-0.115161 -0.0556,-0.186641 -0.0159,-0.07545 -0.0754,-0.329599 l -0.0516,0.508298 q -0.0199,0.242235 -0.0596,0.810099 l -0.15487,2.462067 q -0.008,0.182669 -0.0119,0.540066 l -0.51227,-0.0079 q -0.13105,0 -0.52021,0.0079 z"
       style="stroke-width:0.20331906"
       id="path884" />
  </g>
</svg>
